<?xml version="1.0" encoding="UTF-8"?>
<svg width="1080px" height="1080px" viewBox="0 0 1080 1080" version="1.1" xmlns="http://www.w3.org/2000/svg" xmlns:xlink="http://www.w3.org/1999/xlink">
    <title>token</title>
    <defs>
        <linearGradient x1="50%" y1="-2.48949813e-15%" x2="50%" y2="100%" id="linearGradient-1">
            <stop stop-color="#FFBF17" offset="0%"></stop>
            <stop stop-color="#805C00" offset="100%"></stop>
        </linearGradient>
        <linearGradient x1="50%" y1="100%" x2="50%" y2="-2.48949813e-15%" id="linearGradient-2">
            <stop stop-color="#DA1A32" offset="0%"></stop>
            <stop stop-color="#FFBF17" offset="0%"></stop>
            <stop stop-color="#805C00" offset="100%"></stop>
        </linearGradient>
    </defs>
    <g id="token" stroke="none" stroke-width="1" fill="none" fill-rule="evenodd">
        <circle id="path" fill="url(#linearGradient-1)" cx="540" cy="540" r="468"></circle>
        <path d="M540,150 C755.391052,150 930,324.608948 930,540 C930,755.391052 755.391052,930 540,930 C324.608948,930 150,755.391052 150,540 C150,324.608948 324.608948,150 540,150 Z M540,189 C346.148053,189 189,346.148053 189,540 C189,733.851947 346.148053,891 540,891 C733.851947,891 891,733.851947 891,540 C891,346.148053 733.851947,189 540,189 Z" id="path" fill="url(#linearGradient-2)"></path>
        <g id="svg" transform="translate(300, 300)">
            <rect id="base" fill-rule="nonzero" x="0" y="0" width="480" height="480"></rect>
            <path d="M272.174,217.472 C251.416,209.916 240.712,186.9618 248.268,166.2026 L282.47,72.2334 C290.026,51.4742 312.98,40.7708 333.738,48.3266 L427.708,82.5286 C448.466,90.0842 459.17,113.038 451.614,133.797 L417.412,227.766 C409.856,248.526 386.902,259.228 366.144,251.674 L272.174,217.472 Z M343.138,168.7954 C353.516,172.5734 364.994,167.2216 368.772,156.842 C372.55,146.4624 367.198,134.9856 356.818,131.2078 C346.438,127.43 334.962,132.7816 331.184,143.1612 C327.406,153.5408 332.758,165.0176 343.138,168.7954 Z" id="Shape" fill="#FFFFFF"></path>
            <path d="M40.058,219.892 C20.0364,229.228 11.37414,253.028 20.7104,273.048 L79.877,399.932 C89.2132,419.954 113.0124,428.616 133.034,419.28 L259.918,360.112 C279.938,350.776 288.6,326.978 279.264,306.956 L220.098,180.0728 C210.762,160.0512 186.9626,151.389 166.941,160.7252 L40.058,219.892 Z M128.1978,267.04 C132.866,277.05 128.5348,288.95 118.524,293.618 C108.5132,298.286 96.6136,293.954 91.9456,283.944 C87.2774,273.932 91.6084,262.034 101.6192,257.366 C111.63,252.698 123.5296,257.028 128.1978,267.04 Z M198.2896,322.64 C208.3,317.972 212.632,306.074 207.964,296.062 C203.296,286.052 191.3958,281.72 181.385,286.388 C171.3742,291.056 167.043,302.956 171.7112,312.968 C176.3792,322.978 188.2788,327.31 198.2896,322.64 Z" id="Shape" fill="#FFFFFF"></path>
        </g>
    </g>
</svg>